# xmcd
#
# Track frame offsets:
#	150
#	15660
#	31462
#	51578
#	65744
#	86491
#	100342
#
# Disc length: 1605 seconds
#
# Revision: 1
# Processed by: cddbd v1.5.1PL2 Copyright (c) Steve Scherf et al.
# Submitted via: audiograbber 1.83.01
#
DISCID=5c064307
DTITLE=Sleeper Car - Shy Me
DYEAR=2006
DGENRE=Country
TTITLE0=Shy Me
TTITLE1=Cut It On Out
TTITLE2=Prettier Ones
TTITLE3=Eugene's Lament
TTITLE4=Ballad In A Minor
TTITLE5=Carryall
TTITLE6=Rain Down
EXTD=
EXTT0=
EXTT1=
EXTT2=
EXTT3=
EXTT4=
EXTT5=
EXTT6=
PLAYORDER=
